<svg width="30" height="30" viewBox="0 0 30 30" fill="none" xmlns="http://www.w3.org/2000/svg">
<g clip-path="url(#clip0_348_294)">
<path d="M26.6745 6.6775H21.2109L19.6988 3.36385C19.5629 3.06852 19.2676 2.8736 18.9427 2.8736H11.0632C10.7383 2.8736 10.443 3.06261 10.3071 3.36385L8.79504 6.6775H5.09155V6.38216C5.09155 5.92144 4.71943 5.54932 4.25871 5.54932C3.79799 5.54932 3.42587 5.92144 3.42587 6.38216V6.6775H3.33136C1.49439 6.6775 0 8.17189 0 10.0089V23.795C0 25.632 1.49439 27.1264 3.33136 27.1264H26.6686C28.5056 27.1264 30 25.632 30 23.795V10.0089C30.0059 8.17189 28.5115 6.6775 26.6745 6.6775ZM11.6007 4.53928H18.4052L19.3798 6.6775H10.6261L11.6007 4.53928ZM26.6745 25.4607H3.33136C2.40992 25.4607 1.66568 24.7106 1.66568 23.795V10.0089C1.66568 9.08742 2.41583 8.34318 3.33136 8.34318H26.6686C27.5901 8.34318 28.3343 9.09333 28.3343 10.0089V23.795H28.3402C28.3402 24.7165 27.5901 25.4607 26.6745 25.4607Z" fill="white" fill-opacity="0.5"/>
<path d="M6.6332 10.0089H3.9811C3.52038 10.0089 3.14825 10.381 3.14825 10.8417C3.14825 11.3024 3.52038 11.6745 3.9811 11.6745H6.6332C7.09392 11.6745 7.46604 11.3024 7.46604 10.8417C7.46604 10.381 7.09392 10.0089 6.6332 10.0089Z" fill="white" fill-opacity="0.5"/>
<path d="M15.003 10.0089C11.205 10.0089 8.10986 13.098 8.10986 16.9019C8.10986 20.6999 11.1991 23.795 15.003 23.795C18.8009 23.795 21.896 20.7058 21.896 16.9019C21.896 13.104 18.8009 10.0089 15.003 10.0089ZM15.003 22.1294C12.1205 22.1294 9.77555 19.7844 9.77555 16.9019C9.77555 14.0195 12.1205 11.6745 15.003 11.6745C17.8854 11.6745 20.2304 14.0195 20.2304 16.9019C20.2304 19.7844 17.8854 22.1294 15.003 22.1294Z" fill="white" fill-opacity="0.5"/>
<path d="M15.0029 13.3461C14.5422 13.3461 14.1701 13.7183 14.1701 14.179C14.1701 14.6397 14.5422 15.0118 15.0029 15.0118C16.0484 15.0118 16.8931 15.8624 16.8931 16.9019C16.8931 17.3627 17.2652 17.7348 17.7259 17.7348C18.1866 17.7348 18.5588 17.3627 18.5588 16.9019C18.5588 14.9409 16.964 13.3461 15.0029 13.3461Z" fill="white" fill-opacity="0.5"/>
</g>
<defs>
<clipPath id="clip0_348_294">
<rect width="30" height="30" fill="white"/>
</clipPath>
</defs>
</svg>
