<svg width="15" height="15" viewBox="0 0 15 15" fill="none" xmlns="http://www.w3.org/2000/svg">
<path fill-rule="evenodd" clip-rule="evenodd" d="M9.90812 10.35C8.85625 11.2981 7.46375 11.875 5.9375 11.875C2.66062 11.875 0 9.21437 0 5.9375C0 2.66062 2.66062 0 5.9375 0C9.21437 0 11.875 2.66062 11.875 5.9375C11.875 7.46375 11.2981 8.85625 10.35 9.90812L15 14.5581L14.5581 15L9.90812 10.35ZM5.9375 0.625C8.86938 0.625 11.25 3.00563 11.25 5.9375C11.25 8.86938 8.86938 11.25 5.9375 11.25C3.00563 11.25 0.625 8.86938 0.625 5.9375C0.625 3.00563 3.00563 0.625 5.9375 0.625Z" fill="white" fill-opacity="0.5"/>
</svg>
